<svg xmlns="http://www.w3.org/2000/svg" xmlns:xlink="http://www.w3.org/1999/xlink" width="100" zoomAndPan="magnify" viewBox="0 0 75 74.999997" height="100" preserveAspectRatio="xMidYMid meet" version="1.0"><defs><clipPath id="4894017033"><path d="M 37.5 0 C 16.789062 0 0 16.789062 0 37.5 C 0 58.210938 16.789062 75 37.5 75 C 58.210938 75 75 58.210938 75 37.5 C 75 16.789062 58.210938 0 37.5 0 Z M 37.5 0 " clip-rule="nonzero"/></clipPath><clipPath id="3da113d4dc"><path d="M 12.910156 15.324219 L 66.160156 15.324219 L 66.160156 59.554688 L 12.910156 59.554688 Z M 12.910156 15.324219 " clip-rule="nonzero"/></clipPath></defs><g clip-path="url(#4894017033)"><rect x="-7.5" width="90" fill="#ffffff" y="-7.5" height="89.999996" fill-opacity="1"/></g><g clip-path="url(#3da113d4dc)"><path fill="#1c1d20" d="M 51.65625 25.0625 C 50.328125 19.480469 45.3125 15.304688 39.328125 15.304688 L 16.085938 15.304688 C 14.335938 15.304688 12.914062 16.722656 12.914062 18.476562 L 12.914062 56.511719 C 12.914062 58.261719 14.335938 59.679688 16.085938 59.679688 L 48.839844 59.679688 C 58.449219 59.679688 66.269531 51.859375 66.269531 42.246094 C 66.269531 33.597656 59.929688 26.417969 51.65625 25.0625 Z M 45.667969 27.984375 C 45.667969 31.480469 42.824219 34.324219 39.328125 34.324219 C 32.335938 34.324219 26.648438 40.011719 26.648438 47 L 26.648438 53.339844 L 19.253906 53.339844 L 19.253906 21.644531 L 39.328125 21.644531 C 42.824219 21.644531 45.667969 24.488281 45.667969 27.984375 Z M 48.839844 53.339844 L 32.992188 53.339844 L 32.992188 47 C 32.992188 43.503906 35.835938 40.664062 39.328125 40.664062 C 45.101562 40.664062 49.976562 36.78125 51.503906 31.492188 C 56.335938 32.6875 59.933594 37.050781 59.933594 42.246094 C 59.933594 48.363281 54.957031 53.339844 48.839844 53.339844 Z M 48.839844 53.339844 " fill-opacity="1" fill-rule="nonzero"/></g></svg>