<svg xmlns="http://www.w3.org/2000/svg" xmlns:xlink="http://www.w3.org/1999/xlink" width="1000" zoomAndPan="magnify" viewBox="0 0 750 149.999998" height="200" preserveAspectRatio="xMidYMid meet" version="1.0"><defs><g/><clipPath id="5290274219"><path d="M 1.453125 1.65625 L 178.78125 1.65625 L 178.78125 150 L 1.453125 150 Z M 1.453125 1.65625 " clip-rule="nonzero"/></clipPath></defs><g clip-path="url(#5290274219)"><path fill="#9ca3af" d="M 130.40625 34.074219 C 126 15.484375 109.300781 1.597656 89.386719 1.597656 L 12.019531 1.597656 C 6.191406 1.597656 1.46875 6.320312 1.46875 12.144531 L 1.46875 138.742188 C 1.46875 144.570312 6.191406 149.292969 12.019531 149.292969 L 121.035156 149.292969 C 153.027344 149.292969 179.058594 123.261719 179.058594 91.269531 C 179.058594 62.472656 157.953125 38.578125 130.40625 34.074219 Z M 110.480469 43.796875 C 110.480469 55.433594 101.015625 64.894531 89.382812 64.894531 C 66.113281 64.894531 47.183594 83.828125 47.183594 107.09375 L 47.183594 128.195312 L 22.566406 128.195312 L 22.566406 22.695312 L 89.386719 22.695312 C 101.019531 22.695312 110.480469 32.164062 110.480469 43.796875 Z M 121.035156 128.195312 L 68.285156 128.195312 L 68.285156 107.09375 C 68.285156 95.457031 77.753906 86 89.386719 86 C 108.601562 86 124.828125 73.074219 129.90625 55.46875 C 145.988281 59.457031 157.960938 73.972656 157.960938 91.269531 C 157.960938 111.628906 141.398438 128.195312 121.035156 128.195312 Z M 121.035156 128.195312 " fill-opacity="1" fill-rule="nonzero"/></g><g fill="#9ca3af" fill-opacity="1"><g transform="translate(224.947498, 122.193545)"><g><path d="M 11.140625 -92.328125 L 56.21875 -92.328125 C 65.164062 -92.328125 71.738281 -90.378906 75.9375 -86.484375 C 80.144531 -82.585938 82.25 -76.796875 82.25 -69.109375 C 82.25 -62.660156 81 -57.738281 78.5 -54.34375 C 76 -50.945312 71.972656 -48.625 66.421875 -47.375 L 66.421875 -46.828125 C 72.503906 -45.578125 76.820312 -43.25 79.375 -39.84375 C 81.925781 -36.445312 83.203125 -31.351562 83.203125 -24.5625 C 83.203125 -16.59375 81.164062 -10.503906 77.09375 -6.296875 C 73.019531 -2.097656 66.0625 0 56.21875 0 L 11.140625 0 Z M 49.375 -54.875 C 54.5625 -54.875 58.117188 -55.613281 60.046875 -57.09375 C 61.972656 -58.570312 62.9375 -61.28125 62.9375 -65.21875 C 62.9375 -68.164062 62.578125 -70.378906 61.859375 -71.859375 C 61.140625 -73.335938 59.84375 -74.363281 57.96875 -74.9375 C 56.09375 -75.519531 53.226562 -75.8125 49.375 -75.8125 L 30.1875 -75.8125 L 30.1875 -54.875 Z M 50.046875 -16.5 C 53.804688 -16.5 56.671875 -16.8125 58.640625 -17.4375 C 60.609375 -18.070312 61.972656 -19.148438 62.734375 -20.671875 C 63.492188 -22.191406 63.875 -24.425781 63.875 -27.375 C 63.875 -30.320312 63.46875 -32.578125 62.65625 -34.140625 C 61.851562 -35.710938 60.488281 -36.8125 58.5625 -37.4375 C 56.644531 -38.0625 53.804688 -38.375 50.046875 -38.375 L 30.1875 -38.375 L 30.1875 -16.5 Z M 50.046875 -16.5 "/></g></g></g><g fill="#9ca3af" fill-opacity="1"><g transform="translate(313.247489, 122.193545)"><g><path d="M 9.390625 0 L 9.390625 -99.703125 L 27.375 -99.703125 L 27.375 0 Z M 9.390625 0 "/></g></g></g><g fill="#9ca3af" fill-opacity="1"><g transform="translate(347.467076, 122.193545)"><g><path d="M 38.375 1.078125 C 28.53125 1.078125 21.4375 0.0703125 17.09375 -1.9375 C 12.757812 -3.957031 9.988281 -7.289062 8.78125 -11.9375 C 7.582031 -16.59375 6.984375 -24.066406 6.984375 -34.359375 C 6.984375 -44.640625 7.582031 -52.082031 8.78125 -56.6875 C 9.988281 -61.300781 12.738281 -64.59375 17.03125 -66.5625 C 21.332031 -68.53125 28.445312 -69.515625 38.375 -69.515625 C 48.300781 -69.515625 55.410156 -68.53125 59.703125 -66.5625 C 64.003906 -64.59375 66.757812 -61.300781 67.96875 -56.6875 C 69.175781 -52.082031 69.78125 -44.640625 69.78125 -34.359375 C 69.78125 -24.066406 69.175781 -16.59375 67.96875 -11.9375 C 66.757812 -7.289062 63.984375 -3.957031 59.640625 -1.9375 C 55.304688 0.0703125 48.21875 1.078125 38.375 1.078125 Z M 38.375 -13.6875 C 43.03125 -13.6875 46.226562 -14.132812 47.96875 -15.03125 C 49.71875 -15.925781 50.789062 -17.625 51.1875 -20.125 C 51.59375 -22.632812 51.796875 -27.378906 51.796875 -34.359375 C 51.796875 -41.328125 51.59375 -46.039062 51.1875 -48.5 C 50.789062 -50.96875 49.71875 -52.625 47.96875 -53.46875 C 46.226562 -54.320312 43.03125 -54.75 38.375 -54.75 C 33.726562 -54.75 30.53125 -54.320312 28.78125 -53.46875 C 27.039062 -52.625 25.96875 -50.96875 25.5625 -48.5 C 25.15625 -46.039062 24.953125 -41.328125 24.953125 -34.359375 C 24.953125 -27.378906 25.15625 -22.632812 25.5625 -20.125 C 25.96875 -17.625 27.039062 -15.925781 28.78125 -15.03125 C 30.53125 -14.132812 33.726562 -13.6875 38.375 -13.6875 Z M 38.375 -13.6875 "/></g></g></g><g fill="#9ca3af" fill-opacity="1"><g transform="translate(421.54243, 122.193545)"><g><path d="M 35.6875 27.640625 C 31.394531 27.640625 27.007812 27.484375 22.53125 27.171875 C 18.0625 26.859375 14.578125 26.476562 12.078125 26.03125 L 12.078125 12.34375 C 17.441406 12.613281 23.882812 12.75 31.40625 12.75 C 37.75 12.75 42.21875 12.34375 44.8125 11.53125 C 47.40625 10.726562 49.082031 9.226562 49.84375 7.03125 C 50.601562 4.84375 50.984375 1.023438 50.984375 -4.421875 L 50.984375 -8.59375 L 50.1875 -8.59375 C 48.394531 -5.363281 45.84375 -3.097656 42.53125 -1.796875 C 39.226562 -0.503906 35.203125 0.140625 30.453125 0.140625 C 24.554688 0.140625 19.929688 -0.882812 16.578125 -2.9375 C 13.222656 -5 10.785156 -8.515625 9.265625 -13.484375 C 7.742188 -18.453125 6.984375 -25.453125 6.984375 -34.484375 C 6.984375 -43.523438 7.765625 -50.570312 9.328125 -55.625 C 10.890625 -60.675781 13.347656 -64.253906 16.703125 -66.359375 C 20.054688 -68.460938 24.640625 -69.515625 30.453125 -69.515625 C 40.566406 -69.515625 47.28125 -66.335938 50.59375 -59.984375 L 51.65625 -59.984375 L 52.203125 -68.4375 L 68.84375 -68.4375 L 68.84375 -8.046875 C 68.84375 1.253906 68.144531 8.316406 66.75 13.140625 C 65.363281 17.972656 62.320312 21.597656 57.625 24.015625 C 52.9375 26.429688 45.625 27.640625 35.6875 27.640625 Z M 38.109375 -15.703125 C 41.054688 -15.703125 43.359375 -16.035156 45.015625 -16.703125 C 46.671875 -17.378906 47.945312 -18.476562 48.84375 -20 C 49.738281 -21.425781 50.316406 -23.253906 50.578125 -25.484375 C 50.847656 -27.722656 50.984375 -30.722656 50.984375 -34.484375 C 50.984375 -38.242188 50.847656 -41.265625 50.578125 -43.546875 C 50.316406 -45.828125 49.785156 -47.640625 48.984375 -48.984375 C 47.992188 -50.679688 46.671875 -51.882812 45.015625 -52.59375 C 43.359375 -53.3125 41.054688 -53.671875 38.109375 -53.671875 C 33.898438 -53.671875 30.921875 -53.269531 29.171875 -52.46875 C 27.429688 -51.664062 26.289062 -50.007812 25.75 -47.5 C 25.21875 -45 24.953125 -40.660156 24.953125 -34.484375 C 24.953125 -28.398438 25.21875 -24.148438 25.75 -21.734375 C 26.289062 -19.316406 27.429688 -17.707031 29.171875 -16.90625 C 30.921875 -16.101562 33.898438 -15.703125 38.109375 -15.703125 Z M 38.109375 -15.703125 "/></g></g></g><g fill="#9ca3af" fill-opacity="1"><g transform="translate(497.228111, 122.193545)"><g><path d="M 70.453125 0 L 63.734375 -19.859375 L 27.78125 -19.859375 L 21.203125 0 L 2.015625 0 L 33.28125 -92.328125 L 58.90625 -92.328125 L 90.171875 0 Z M 46.03125 -74.34375 L 45.359375 -74.34375 L 32.875 -36.5 L 58.640625 -36.5 Z M 46.03125 -74.34375 "/></g></g></g><g fill="#9ca3af" fill-opacity="1"><g transform="translate(586.735838, 122.193545)"><g><path d="M 9.390625 -68.4375 L 26.171875 -68.4375 L 26.703125 -59.984375 L 27.640625 -59.984375 C 29.515625 -63.554688 32.21875 -66.035156 35.75 -67.421875 C 39.289062 -68.816406 43.34375 -69.515625 47.90625 -69.515625 C 53.71875 -69.515625 58.300781 -68.460938 61.65625 -66.359375 C 65.007812 -64.253906 67.445312 -60.675781 68.96875 -55.625 C 70.488281 -50.570312 71.25 -43.484375 71.25 -34.359375 C 71.25 -25.234375 70.488281 -18.117188 68.96875 -13.015625 C 67.445312 -7.921875 65.050781 -4.296875 61.78125 -2.140625 C 58.519531 0.00390625 54.03125 1.078125 48.3125 1.078125 C 43.476562 1.078125 39.425781 0.453125 36.15625 -0.796875 C 32.894531 -2.054688 30.28125 -4.296875 28.3125 -7.515625 L 27.234375 -7.515625 L 27.234375 26.703125 L 9.390625 26.703125 Z M 40.25 -14.890625 C 44.457031 -14.890625 47.410156 -15.289062 49.109375 -16.09375 C 50.804688 -16.90625 51.945312 -18.582031 52.53125 -21.125 C 53.113281 -23.675781 53.40625 -28.039062 53.40625 -34.21875 C 53.40625 -40.394531 53.113281 -44.78125 52.53125 -47.375 C 51.945312 -49.96875 50.804688 -51.664062 49.109375 -52.46875 C 47.410156 -53.269531 44.457031 -53.671875 40.25 -53.671875 C 37.125 -53.671875 34.6875 -53.269531 32.9375 -52.46875 C 31.195312 -51.664062 29.925781 -50.367188 29.125 -48.578125 C 28.40625 -47.054688 27.910156 -45.175781 27.640625 -42.9375 C 27.367188 -40.695312 27.234375 -37.789062 27.234375 -34.21875 C 27.234375 -30.550781 27.34375 -27.617188 27.5625 -25.421875 C 27.789062 -23.234375 28.265625 -21.425781 28.984375 -20 C 29.785156 -18.207031 31.082031 -16.90625 32.875 -16.09375 C 34.664062 -15.289062 37.125 -14.890625 40.25 -14.890625 Z M 40.25 -14.890625 "/></g></g></g><g fill="#9ca3af" fill-opacity="1"><g transform="translate(662.421538, 122.193545)"><g><path d="M 9.390625 -68.4375 L 26.171875 -68.4375 L 26.703125 -59.984375 L 27.640625 -59.984375 C 29.515625 -63.554688 32.21875 -66.035156 35.75 -67.421875 C 39.289062 -68.816406 43.34375 -69.515625 47.90625 -69.515625 C 53.71875 -69.515625 58.300781 -68.460938 61.65625 -66.359375 C 65.007812 -64.253906 67.445312 -60.675781 68.96875 -55.625 C 70.488281 -50.570312 71.25 -43.484375 71.25 -34.359375 C 71.25 -25.234375 70.488281 -18.117188 68.96875 -13.015625 C 67.445312 -7.921875 65.050781 -4.296875 61.78125 -2.140625 C 58.519531 0.00390625 54.03125 1.078125 48.3125 1.078125 C 43.476562 1.078125 39.425781 0.453125 36.15625 -0.796875 C 32.894531 -2.054688 30.28125 -4.296875 28.3125 -7.515625 L 27.234375 -7.515625 L 27.234375 26.703125 L 9.390625 26.703125 Z M 40.25 -14.890625 C 44.457031 -14.890625 47.410156 -15.289062 49.109375 -16.09375 C 50.804688 -16.90625 51.945312 -18.582031 52.53125 -21.125 C 53.113281 -23.675781 53.40625 -28.039062 53.40625 -34.21875 C 53.40625 -40.394531 53.113281 -44.78125 52.53125 -47.375 C 51.945312 -49.96875 50.804688 -51.664062 49.109375 -52.46875 C 47.410156 -53.269531 44.457031 -53.671875 40.25 -53.671875 C 37.125 -53.671875 34.6875 -53.269531 32.9375 -52.46875 C 31.195312 -51.664062 29.925781 -50.367188 29.125 -48.578125 C 28.40625 -47.054688 27.910156 -45.175781 27.640625 -42.9375 C 27.367188 -40.695312 27.234375 -37.789062 27.234375 -34.21875 C 27.234375 -30.550781 27.34375 -27.617188 27.5625 -25.421875 C 27.789062 -23.234375 28.265625 -21.425781 28.984375 -20 C 29.785156 -18.207031 31.082031 -16.90625 32.875 -16.09375 C 34.664062 -15.289062 37.125 -14.890625 40.25 -14.890625 Z M 40.25 -14.890625 "/></g></g></g></svg>